<svg width="177" height="117" viewBox="0 0 177 117" fill="none" xmlns="http://www.w3.org/2000/svg">
<path d="M32.7026 35C3.5026 31.4 -1.13073 6.5 0.202603 -5.5L148.203 -38L220.203 20C206.869 58.5 179.403 131.3 176.203 114.5C172.203 93.5 149.203 110 130.203 100.5C111.203 91 109.703 72.5 94.7026 53C79.7026 33.5 69.2026 39.5 32.7026 35Z" fill="#FF8832"/>
<path d="M37.7026 28C8.5026 24.4 3.86927 -0.5 5.2026 -12.5L153.203 -45L225.203 13C211.869 51.5 184.403 124.3 181.203 107.5C177.203 86.5 154.203 103 135.203 93.5C116.203 84 114.703 65.5 99.7026 46C84.7026 26.5 74.2026 32.5 37.7026 28Z" fill="#6A32E7"/>
</svg>
